<?xml version="1.0" encoding="utf-8"?>
<!-- Generator: Adobe Illustrator 27.9.0, SVG Export Plug-In . SVG Version: 6.00 Build 0)  -->
<svg version="1.1" id="Layer_1" xmlns="http://www.w3.org/2000/svg" xmlns:xlink="http://www.w3.org/1999/xlink" x="0px" y="0px"
	 viewBox="0 0 758 758" style="enable-background:new 0 0 758 758;" xml:space="preserve">
<style type="text/css">
	.st0{fill:#EF417A;}
	.st1{fill:#FFFFFF;}
</style>
<circle class="st0" cx="379.25" cy="378.92" r="374.6"/>
<g>
	<path class="st1" d="M379.76,199.03c-12.99,0-24.1-3.98-33.32-11.96c-9.23-7.97-13.84-19.25-13.84-33.84
		c0-13.21,4.73-24.1,14.18-32.64c9.45-8.54,20.45-12.82,32.98-12.82c12.08,0,22.78,3.88,32.13,11.62
		c9.34,7.75,14.01,19.03,14.01,33.84c0,14.36-4.56,25.58-13.67,33.67C403.12,194.99,392.29,199.03,379.76,199.03z M425.91,295.42
		v269.68c0,18.69-4.44,32.81-13.33,42.38s-20.17,14.36-33.84,14.36c-13.67,0-24.78-4.9-33.32-14.7s-12.82-23.81-12.82-42.04V298.15
		c0-18.46,4.27-32.35,12.82-41.7c8.54-9.34,19.65-14.01,33.32-14.01c13.67,0,24.95,4.67,33.84,14.01
		C421.46,265.8,425.91,278.79,425.91,295.42z"/>
</g>
</svg>
