<?xml version="1.0" encoding="utf-8"?>
<!-- Generator: Adobe Illustrator 27.9.0, SVG Export Plug-In . SVG Version: 6.00 Build 0)  -->
<svg version="1.1" xmlns="http://www.w3.org/2000/svg" xmlns:xlink="http://www.w3.org/1999/xlink" x="0px" y="0px"
	 viewBox="0 0 758 758" style="enable-background:new 0 0 758 758;" xml:space="preserve">
<style type="text/css">
	.st0{fill:#EF417A;}
	.st1{fill:#FFFFFF;}
</style>
<g id="Layer_1">
	<circle class="st0" cx="379.25" cy="378.92" r="374.6"/>
</g>
<g id="Layer_2">
	<path class="st1" d="M197.11,602.15c-7.81,0-15.71-1.62-23.3-4.93c-21.35-9.31-34.61-29.55-34.61-52.84V285.23
		c0-53.19,43.27-96.45,96.45-96.45h178.02c10.77,0,19.5,8.73,19.5,19.5s-8.73,19.5-19.5,19.5H235.66
		c-31.68,0-57.45,25.77-57.45,57.45v259.16c0,11.33,8.56,15.94,11.19,17.08c2.63,1.14,11.83,4.28,20.13-3.43l35.65-33.12
		c3.61-3.35,8.35-5.21,13.27-5.21H487c27.49,0,49.86-22.37,49.86-49.86v-68.04c0-10.77,8.73-19.5,19.5-19.5s19.5,8.73,19.5,19.5
		v68.04c0,49-39.86,88.86-88.86,88.86H266.11l-30.04,27.9C225.08,596.83,211.26,602.15,197.11,602.15z"/>
	<path class="st1" d="M306.01,353.28h-73.32c-10.77,0-19.5-8.73-19.5-19.5s8.73-19.5,19.5-19.5h73.32c10.77,0,19.5,8.73,19.5,19.5
		S316.78,353.28,306.01,353.28z"/>
	<path class="st1" d="M306.01,436.51h-73.32c-10.77,0-19.5-8.73-19.5-19.5s8.73-19.5,19.5-19.5h73.32c10.77,0,19.5,8.73,19.5,19.5
		S316.78,436.51,306.01,436.51z"/>
	<path class="st1" d="M391.34,439.64c-8.7,0-17.08-3.42-23.48-9.82c-8.52-8.52-11.76-20.54-8.68-32.16l15.09-56.89
		c1.5-5.65,4.48-10.82,8.61-14.96l166.83-166.83c6.27-6.27,14.61-9.72,23.49-9.72c0.04,0,0.08,0,0.12,0
		c8.87,0.03,17.22,3.51,23.5,9.79l41.8,41.8c13.01,13.01,13.04,34.15,0.07,47.12L471.87,414.79c-4.13,4.13-9.3,7.11-14.96,8.61
		l-56.89,15.09C397.13,439.27,394.22,439.64,391.34,439.64z M411.57,352.28l-12.22,46.05l46.05-12.22l161.67-161.67l-33.83-33.83
		L411.57,352.28z"/>
</g>
</svg>
