<?xml version="1.0" encoding="utf-8"?>
<!-- Generator: Adobe Illustrator 27.9.0, SVG Export Plug-In . SVG Version: 6.00 Build 0)  -->
<svg version="1.1" xmlns="http://www.w3.org/2000/svg" xmlns:xlink="http://www.w3.org/1999/xlink" x="0px" y="0px"
	 viewBox="0 0 758 758" style="enable-background:new 0 0 758 758;" xml:space="preserve">
<style type="text/css">
	.st0{fill:#EF417A;}
	.st1{fill:#FFFFFF;}
</style>
<g id="Layer_1">
	<circle class="st0" cx="379.25" cy="378.92" r="374.6"/>
</g>
<g id="Layer_3">
	<g>
		<path class="st1" d="M611.77,542.75H146.74c-10.77,0-19.5-8.73-19.5-19.5V234.59c0-10.77,8.73-19.5,19.5-19.5h465.03
			c10.77,0,19.5,8.73,19.5,19.5v288.66C631.27,534.02,622.54,542.75,611.77,542.75z M166.24,503.75h426.03V254.09H166.24V503.75z"/>
		<path class="st1" d="M379.25,438.42c-4.28,0-8.57-1.41-12.11-4.22L134.62,249.87c-8.44-6.69-9.86-18.96-3.17-27.4
			c6.69-8.44,18.96-9.86,27.4-3.17l220.4,174.73l220.4-174.73c8.44-6.69,20.71-5.27,27.39,3.17c6.69,8.44,5.27,20.7-3.17,27.4
			L391.37,434.2C387.82,437.01,383.53,438.42,379.25,438.42z"/>
		<path class="st1" d="M146.75,538.42c-5.75,0-11.44-2.53-15.29-7.39c-6.69-8.44-5.27-20.7,3.17-27.39L308.1,366.12
			c8.44-6.69,20.7-5.27,27.4,3.17c6.69,8.44,5.27,20.7-3.17,27.39L158.85,534.2C155.27,537.04,150.99,538.42,146.75,538.42z"/>
		<path class="st1" d="M611.75,538.42c-4.24,0-8.52-1.38-12.1-4.22L421.64,393.08c-8.44-6.69-9.86-18.96-3.17-27.39
			s18.96-9.86,27.39-3.17l178.01,141.12c8.44,6.69,9.86,18.96,3.17,27.39C623.2,535.89,617.5,538.42,611.75,538.42z"/>
	</g>
</g>
</svg>
