<?xml version="1.0" encoding="utf-8"?>
<!-- Generator: Adobe Illustrator 27.9.0, SVG Export Plug-In . SVG Version: 6.00 Build 0)  -->
<svg version="1.1" id="Layer_2" xmlns="http://www.w3.org/2000/svg" xmlns:xlink="http://www.w3.org/1999/xlink" x="0px" y="0px"
	 viewBox="0 0 758 758" style="enable-background:new 0 0 758 758;" xml:space="preserve">
<style type="text/css">
	.st0{fill:#EF417A;}
	.st1{fill:#FFFFFF;}
</style>
<circle class="st0" cx="379" cy="379" r="378.95"/>
<g>
	<path class="st1" d="M105.88,548.57l61.77-355.47h94.48c22.13,0.33,41.91,5.29,59.33,14.89c17.41,9.61,31.25,23.36,41.5,41.26
		c10.25,17.91,16.11,38.01,17.58,60.3c0.81,13.67,0.08,27.34-2.2,41.02l-6.59,39.31c-5.05,29.79-15.62,56.8-31.74,81.05
		c-16.11,24.25-36.13,43.21-60.06,56.88s-49.48,20.59-76.66,20.75H105.88z M178.63,206.29l-57.13,329.1h77.88
		c39.06,0,73.44-13.71,103.15-41.14c29.7-27.42,48.46-63.11,56.27-107.06l6.84-38.82c3.09-18.07,3.17-35.56,0.24-52.49
		c-5.05-27.18-16.77-48.79-35.16-64.82c-18.39-16.03-41.02-24.29-67.87-24.78H178.63z"/>
	<path class="st1" d="M400.7,548.57l61.77-355.47h89.6c35.16,0.33,61.48,8.54,78.98,24.66c17.49,16.11,23.96,38.25,19.41,66.41
		c-3.58,20.84-11.8,38.29-24.66,52.37c-12.86,14.08-29.54,23.56-50.05,28.44c20.83,3.58,37.11,13.51,48.83,29.79
		c11.72,16.28,15.95,34.91,12.7,55.91c-4.72,29.79-18.55,53.55-41.5,71.29c-22.95,17.74-51.03,26.61-84.23,26.61H400.7z
		 M444.4,373.03l-28.08,162.35h94.97c29.79,0,54.81-7.57,75.07-22.71s32.84-35.64,37.72-61.52c4.23-23.11-1.18-41.91-16.24-56.4
		c-15.06-14.48-36.42-21.73-64.09-21.73H444.4z M446.6,359.85h77.39c31.9,0,57.58-6.55,77.03-19.65
		c19.45-13.1,31.53-32.1,36.25-57.01c4.39-23.76-0.57-42.32-14.89-55.66c-14.32-13.34-37.03-20.42-68.12-21.24h-80.81L446.6,359.85z
		"/>
</g>
</svg>
